<svg xmlns="http://www.w3.org/2000/svg" viewBox="0 0 800 600" fill="none">
  <!-- Fond dégradé -->
  <defs>
    <linearGradient id="bg" x1="0%" y1="0%" x2="100%" y2="100%">
      <stop offset="0%" style="stop-color:#6366F1;stop-opacity:0.1"/>
      <stop offset="100%" style="stop-color:#8B5CF6;stop-opacity:0.2"/>
    </linearGradient>
  </defs>
  <rect width="800" height="600" fill="url(#bg)"/>
  
  <!-- Maison stylisée -->
  <g transform="translate(150, 100)">
    <!-- Structure -->
    <rect x="100" y="200" width="300" height="250" fill="#4F46E5" opacity="0.1"/>
    <rect x="100" y="200" width="300" height="250" fill="none" stroke="#4F46E5" stroke-width="4"/>
    
    <!-- Toit -->
    <path d="M 80 200 L 250 50 L 420 200 Z" fill="#6366F1" opacity="0.2" stroke="#6366F1" stroke-width="4"/>
    
    <!-- Porte -->
    <rect x="200" y="320" width="100" height="130" fill="#8B5CF6" opacity="0.3" stroke="#8B5CF6" stroke-width="3" rx="5"/>
    <circle cx="280" cy="385" r="5" fill="#FCD34D"/>
    
    <!-- Fenêtres -->
    <rect x="130" y="250" width="70" height="70" fill="#60A5FA" opacity="0.3" stroke="#60A5FA" stroke-width="3" rx="5"/>
    <line x1="165" y1="250" x2="165" y2="320" stroke="#60A5FA" stroke-width="2"/>
    <line x1="130" y1="285" x2="200" y2="285" stroke="#60A5FA" stroke-width="2"/>
    
    <rect x="300" y="250" width="70" height="70" fill="#60A5FA" opacity="0.3" stroke="#60A5FA" stroke-width="3" rx="5"/>
    <line x1="335" y1="250" x2="335" y2="320" stroke="#60A5FA" stroke-width="2"/>
    <line x1="300" y1="285" x2="370" y2="285" stroke="#60A5FA" stroke-width="2"/>
  </g>
  
  <!-- Outils flottants -->
  <g transform="translate(50, 50)">
    <!-- Marteau -->
    <g transform="rotate(-30 50 50)">
      <rect x="40" y="60" width="8" height="60" fill="#6366F1" rx="2"/>
      <rect x="30" y="45" width="28" height="20" fill="#4F46E5" rx="2"/>
    </g>
    
    <!-- Clé -->
    <g transform="translate(650, 400) rotate(45 0 0)">
      <rect x="-5" y="0" width="10" height="60" fill="#8B5CF6" rx="2"/>
      <circle cx="0" cy="70" r="15" fill="none" stroke="#8B5CF6" stroke-width="8"/>
    </g>
    
    <!-- Tournevis -->
    <g transform="translate(100, 450) rotate(-20 0 0)">
      <rect x="-3" y="0" width="6" height="50" fill="#FCD34D"/>
      <polygon points="0,50 -8,70 8,70" fill="#6366F1"/>
    </g>
  </g>
  
  <!-- Icônes de service -->
  <circle cx="600" cy="150" r="40" fill="#4F46E5" opacity="0.1" stroke="#4F46E5" stroke-width="3"/>
  <text x="600" y="160" font-size="30" text-anchor="middle" fill="#4F46E5">🔧</text>
  
  <circle cx="700" cy="250" r="40" fill="#8B5CF6" opacity="0.1" stroke="#8B5CF6" stroke-width="3"/>
  <text x="700" y="260" font-size="30" text-anchor="middle" fill="#8B5CF6">🏠</text>
  
  <circle cx="100" cy="200" r="40" fill="#60A5FA" opacity="0.1" stroke="#60A5FA" stroke-width="3"/>
  <text x="100" y="210" font-size="30" text-anchor="middle" fill="#60A5FA">⚡</text>
</svg>
